<?xml version="1.0" encoding="UTF-8" standalone="no"?>
<!-- Created with Inkscape (http://www.inkscape.org/) -->

<svg
   width="430"
   height="300"
   viewBox="0 0 113.77082 79.374998"
   version="1.1"
   id="svg5"
   inkscape:version="1.1 (c68e22c387, 2021-05-23)"
   sodipodi:docname="rysunek-1.svg"
   xmlns:inkscape="http://www.inkscape.org/namespaces/inkscape"
   xmlns:sodipodi="http://sodipodi.sourceforge.net/DTD/sodipodi-0.dtd"
   xmlns:xlink="http://www.w3.org/1999/xlink"
   xmlns="http://www.w3.org/2000/svg"
   xmlns:svg="http://www.w3.org/2000/svg">
  <sodipodi:namedview
     id="namedview7"
     pagecolor="#ffffff"
     bordercolor="#cccccc"
     borderopacity="1"
     inkscape:pageshadow="0"
     inkscape:pageopacity="1"
     inkscape:pagecheckerboard="0"
     inkscape:document-units="mm"
     showgrid="false"
     inkscape:zoom="0.5"
     inkscape:cx="420"
     inkscape:cy="323"
     inkscape:window-width="1366"
     inkscape:window-height="705"
     inkscape:window-x="-8"
     inkscape:window-y="-8"
     inkscape:window-maximized="1"
     inkscape:current-layer="layer1"
     units="px"
     width="250px" />
  <defs
     id="defs2">
    <linearGradient
       inkscape:collect="always"
       id="linearGradient188">
      <stop
         style="stop-color:#d40000;stop-opacity:1;"
         offset="0"
         id="stop184" />
      <stop
         style="stop-color:#d40000;stop-opacity:0;"
         offset="1"
         id="stop186" />
    </linearGradient>
    <inkscape:path-effect
       effect="bspline"
       id="path-effect9044"
       is_visible="true"
       lpeversion="1"
       weight="33.333333"
       steps="2"
       helper_size="0"
       apply_no_weight="true"
       apply_with_weight="true"
       only_selected="false" />
    <inkscape:path-effect
       effect="bspline"
       id="path-effect9040"
       is_visible="true"
       lpeversion="1"
       weight="33.333333"
       steps="2"
       helper_size="0"
       apply_no_weight="true"
       apply_with_weight="true"
       only_selected="false" />
    <inkscape:path-effect
       effect="bspline"
       id="path-effect9036"
       is_visible="true"
       lpeversion="1"
       weight="33.333333"
       steps="2"
       helper_size="0"
       apply_no_weight="true"
       apply_with_weight="true"
       only_selected="false" />
    <inkscape:path-effect
       effect="bspline"
       id="path-effect9032"
       is_visible="true"
       lpeversion="1"
       weight="33.333333"
       steps="2"
       helper_size="0"
       apply_no_weight="true"
       apply_with_weight="true"
       only_selected="false" />
    <inkscape:path-effect
       effect="bspline"
       id="path-effect9028"
       is_visible="true"
       lpeversion="1"
       weight="33.333333"
       steps="2"
       helper_size="0"
       apply_no_weight="true"
       apply_with_weight="true"
       only_selected="false" />
    <inkscape:path-effect
       effect="bspline"
       id="path-effect9024"
       is_visible="true"
       lpeversion="1"
       weight="33.333333"
       steps="2"
       helper_size="0"
       apply_no_weight="true"
       apply_with_weight="true"
       only_selected="false" />
    <inkscape:path-effect
       effect="bspline"
       id="path-effect9020"
       is_visible="true"
       lpeversion="1"
       weight="33.333333"
       steps="2"
       helper_size="0"
       apply_no_weight="true"
       apply_with_weight="true"
       only_selected="false" />
    <inkscape:path-effect
       effect="bspline"
       id="path-effect5266"
       is_visible="true"
       lpeversion="1"
       weight="33.333333"
       steps="2"
       helper_size="0"
       apply_no_weight="true"
       apply_with_weight="true"
       only_selected="false" />
    <inkscape:path-effect
       effect="bspline"
       id="path-effect4913"
       is_visible="true"
       lpeversion="1"
       weight="33.333333"
       steps="2"
       helper_size="0"
       apply_no_weight="true"
       apply_with_weight="true"
       only_selected="false" />
    <inkscape:path-effect
       effect="bspline"
       id="path-effect4909"
       is_visible="true"
       lpeversion="1"
       weight="33.333333"
       steps="2"
       helper_size="0"
       apply_no_weight="true"
       apply_with_weight="true"
       only_selected="false" />
    <inkscape:path-effect
       effect="bspline"
       id="path-effect4404"
       is_visible="true"
       lpeversion="1"
       weight="33.333333"
       steps="2"
       helper_size="0"
       apply_no_weight="true"
       apply_with_weight="true"
       only_selected="false" />
    <inkscape:path-effect
       effect="bspline"
       id="path-effect3741"
       is_visible="true"
       lpeversion="1"
       weight="33.333333"
       steps="2"
       helper_size="0"
       apply_no_weight="true"
       apply_with_weight="true"
       only_selected="false" />
    <inkscape:path-effect
       effect="bspline"
       id="path-effect2355"
       is_visible="true"
       lpeversion="1"
       weight="33.333333"
       steps="2"
       helper_size="0"
       apply_no_weight="true"
       apply_with_weight="true"
       only_selected="false" />
    <inkscape:path-effect
       effect="bspline"
       id="path-effect417"
       is_visible="true"
       lpeversion="1"
       weight="33.333333"
       steps="2"
       helper_size="0"
       apply_no_weight="true"
       apply_with_weight="true"
       only_selected="false" />
    <inkscape:path-effect
       effect="bspline"
       id="path-effect413"
       is_visible="true"
       lpeversion="1"
       weight="33.333333"
       steps="2"
       helper_size="0"
       apply_no_weight="true"
       apply_with_weight="true"
       only_selected="false" />
    <inkscape:path-effect
       effect="bspline"
       id="path-effect409"
       is_visible="true"
       lpeversion="1"
       weight="33.333333"
       steps="2"
       helper_size="0"
       apply_no_weight="true"
       apply_with_weight="true"
       only_selected="false" />
    <inkscape:path-effect
       effect="bspline"
       id="path-effect405"
       is_visible="true"
       lpeversion="1"
       weight="33.333333"
       steps="2"
       helper_size="0"
       apply_no_weight="true"
       apply_with_weight="true"
       only_selected="false" />
    <inkscape:path-effect
       effect="bspline"
       id="path-effect401"
       is_visible="true"
       lpeversion="1"
       weight="33.333333"
       steps="2"
       helper_size="0"
       apply_no_weight="true"
       apply_with_weight="true"
       only_selected="false" />
    <inkscape:path-effect
       effect="bspline"
       id="path-effect397"
       is_visible="true"
       lpeversion="1"
       weight="33.333333"
       steps="2"
       helper_size="0"
       apply_no_weight="true"
       apply_with_weight="true"
       only_selected="false" />
    <inkscape:path-effect
       effect="bspline"
       id="path-effect389"
       is_visible="true"
       lpeversion="1"
       weight="33.333333"
       steps="2"
       helper_size="0"
       apply_no_weight="true"
       apply_with_weight="true"
       only_selected="false" />
    <inkscape:path-effect
       effect="bspline"
       id="path-effect385"
       is_visible="true"
       lpeversion="1"
       weight="33.333333"
       steps="2"
       helper_size="0"
       apply_no_weight="true"
       apply_with_weight="true"
       only_selected="false" />
    <inkscape:path-effect
       effect="bspline"
       id="path-effect381"
       is_visible="true"
       lpeversion="1"
       weight="33.333333"
       steps="2"
       helper_size="0"
       apply_no_weight="true"
       apply_with_weight="true"
       only_selected="false" />
    <inkscape:path-effect
       effect="bspline"
       id="path-effect377"
       is_visible="true"
       lpeversion="1"
       weight="33.333333"
       steps="2"
       helper_size="0"
       apply_no_weight="true"
       apply_with_weight="true"
       only_selected="false" />
    <inkscape:path-effect
       effect="bspline"
       id="path-effect373"
       is_visible="true"
       lpeversion="1"
       weight="33.333333"
       steps="2"
       helper_size="0"
       apply_no_weight="true"
       apply_with_weight="true"
       only_selected="false" />
    <inkscape:path-effect
       effect="bspline"
       id="path-effect369"
       is_visible="true"
       lpeversion="1"
       weight="33.333333"
       steps="2"
       helper_size="0"
       apply_no_weight="true"
       apply_with_weight="true"
       only_selected="false" />
    <inkscape:path-effect
       effect="bspline"
       id="path-effect365"
       is_visible="true"
       lpeversion="1"
       weight="33.333333"
       steps="2"
       helper_size="0"
       apply_no_weight="true"
       apply_with_weight="true"
       only_selected="false" />
    <inkscape:path-effect
       effect="bspline"
       id="path-effect120"
       is_visible="true"
       lpeversion="1"
       weight="33.333333"
       steps="2"
       helper_size="0"
       apply_no_weight="true"
       apply_with_weight="true"
       only_selected="false" />
    <inkscape:path-effect
       effect="bspline"
       id="path-effect116"
       is_visible="true"
       lpeversion="1"
       weight="33.333333"
       steps="2"
       helper_size="0"
       apply_no_weight="true"
       apply_with_weight="true"
       only_selected="false" />
    <inkscape:path-effect
       effect="bspline"
       id="path-effect108"
       is_visible="true"
       lpeversion="1"
       weight="33.333333"
       steps="2"
       helper_size="0"
       apply_no_weight="true"
       apply_with_weight="true"
       only_selected="false" />
    <inkscape:path-effect
       effect="bspline"
       id="path-effect104"
       is_visible="true"
       lpeversion="1"
       weight="33.333333"
       steps="2"
       helper_size="0"
       apply_no_weight="true"
       apply_with_weight="true"
       only_selected="false" />
    <inkscape:path-effect
       effect="bspline"
       id="path-effect100"
       is_visible="true"
       lpeversion="1"
       weight="33.333333"
       steps="2"
       helper_size="0"
       apply_no_weight="true"
       apply_with_weight="true"
       only_selected="false" />
    <inkscape:path-effect
       effect="bspline"
       id="path-effect96"
       is_visible="true"
       lpeversion="1"
       weight="33.333333"
       steps="2"
       helper_size="0"
       apply_no_weight="true"
       apply_with_weight="true"
       only_selected="false" />
    <inkscape:path-effect
       effect="bspline"
       id="path-effect92"
       is_visible="true"
       lpeversion="1"
       weight="33.333333"
       steps="2"
       helper_size="0"
       apply_no_weight="true"
       apply_with_weight="true"
       only_selected="false" />
    <inkscape:path-effect
       effect="bspline"
       id="path-effect88"
       is_visible="true"
       lpeversion="1"
       weight="33.333333"
       steps="2"
       helper_size="0"
       apply_no_weight="true"
       apply_with_weight="true"
       only_selected="false" />
    <inkscape:path-effect
       effect="bspline"
       id="path-effect1745"
       is_visible="true"
       lpeversion="1"
       weight="33.333333"
       steps="2"
       helper_size="0"
       apply_no_weight="true"
       apply_with_weight="true"
       only_selected="false" />
    <inkscape:path-effect
       effect="bspline"
       id="path-effect1741"
       is_visible="true"
       lpeversion="1"
       weight="33.333333"
       steps="2"
       helper_size="0"
       apply_no_weight="true"
       apply_with_weight="true"
       only_selected="false" />
    <pattern
       id="EMFhbasepattern"
       patternUnits="userSpaceOnUse"
       width="6"
       height="6"
       x="0"
       y="0" />
    <linearGradient
       inkscape:collect="always"
       xlink:href="#linearGradient188"
       id="linearGradient190"
       x1="133.75861"
       y1="89.683533"
       x2="151.06854"
       y2="82.743736"
       gradientUnits="userSpaceOnUse" />
  </defs>
  <g
     inkscape:label="Warstwa 1"
     inkscape:groupmode="layer"
     id="layer1">
    <g
       id="g3315"
       transform="matrix(1.1173778,0,0,1.0553128,-6.5257554,-7.2781249)">
      <g
         id="g7481"
         transform="matrix(1.0000964,0,0,0.94252954,-78.15589,-75.743555)">
        <path
           style="fill:none;stroke:#000000;stroke-width:0.264583px;stroke-linecap:butt;stroke-linejoin:miter;stroke-opacity:1"
           d="m 146.07445,102.35014 c -0.6058,2.62513 -0.22738,5.31901 0.80773,7.67347 2.16873,4.933 9.11212,6.96735 10.70247,12.116 0.16016,0.51851 0.0365,1.12797 -0.20193,1.61547 -0.41823,0.85513 -1.62157,1.1545 -2.01934,2.01933 -0.36672,0.79734 -0.40357,1.77099 -0.20193,2.62514 0.18035,0.76398 1.2116,2.01933 1.2116,2.01933"
           id="path124"
           sodipodi:nodetypes="cssaasc" />
        <path
           style="fill:none;stroke:#000000;stroke-width:0.26033px;stroke-linecap:butt;stroke-linejoin:miter;stroke-opacity:1"
           d="m 146.07235,102.34944 c 0.41402,0.8197 0.82786,1.63906 1.25356,2.3464 0.42569,0.70734 0.86316,1.30265 1.30069,1.74315 0.43753,0.4405 0.87498,0.72624 1.33548,0.89284 0.4605,0.16661 0.94401,0.21423 1.28925,0.13088 0.34524,-0.0834 0.55247,-0.29767 0.62158,-0.59519 0.0691,-0.29751 3e-5,-0.67852 -0.71369,-1.79775 -0.71371,-1.11922 -2.07216,-2.97658 -2.92405,-3.953 -0.85189,-0.97643 -1.19726,-1.07168 -1.43919,-1.02407 -0.24194,0.0476 -0.38009,0.23812 -0.4834,0.63817 -0.10331,0.40005 -0.17178,1.00941 -0.24023,1.61857 0,0 0,0 0,0"
           id="path1739"
           inkscape:path-effect="#path-effect1741"
           inkscape:original-d="m 146.07235,102.34944 c 0.41411,0.81965 0.82796,1.63901 1.24156,2.45812 0.43774,0.59559 0.8752,1.1909 1.31243,1.78598 0.43774,0.28602 0.8752,0.57175 1.31242,0.85724 0.4838,0.0479 0.96732,0.0954 1.45058,0.14288 0.20749,-0.21406 0.41472,-0.42837 0.62169,-0.64293 -0.0688,-0.38076 -0.13789,-0.76177 -0.20722,-1.14304 -1.35826,-1.85717 -2.71671,-3.71453 -4.07545,-5.57218 -0.34513,-0.095 -0.6905,-0.19024 -1.03613,-0.285755 -0.1379,0.190765 -0.27604,0.381275 -0.41445,0.571515 -0.0683,0.60967 -0.1367,1.21904 -0.20543,1.82817 0,0 2.5e-4,2.8e-4 0,0" />
        <path
           style="fill:none;stroke:#000000;stroke-width:0.264583px;stroke-linecap:butt;stroke-linejoin:miter;stroke-opacity:1"
           d="m 152.71226,108.37644 c 0.97599,0.90458 1.95171,1.80891 2.84415,2.60614 0.89244,0.79724 1.70156,1.48737 2.54641,2.14181 0.84485,0.65443 1.72537,1.27318 2.76059,2.05853 1.03522,0.78536 2.2251,1.73726 3.21269,2.72492 0.9876,0.98766 1.77292,2.01096 2.57015,3.15329 0.79723,1.14232 1.60635,2.4036 2.83196,4.48596 1.22561,2.08237 2.86764,4.98568 4.45023,7.79388 1.58258,2.8082 3.10563,5.52112 4.91432,8.28172 1.8087,2.76059 3.90289,5.56871 5.9969,8.37658"
           id="path90"
           inkscape:path-effect="#path-effect92"
           inkscape:original-d="m 152.71226,108.37644 c 0.97598,0.90459 1.9517,1.80892 2.92716,2.71298 0.80941,0.69042 1.61853,1.38055 2.4274,2.07043 0.88081,0.61903 1.76133,1.23777 2.64159,1.85625 1.19019,0.95221 2.38007,1.90411 3.56971,2.85577 0.78562,1.0236 1.57094,2.0469 2.35601,3.06995 0.80942,1.26159 1.61853,2.52287 2.42741,3.7839 1.64236,2.90369 3.2844,5.807 4.9262,8.7101 1.52337,2.7133 3.04642,5.42622 4.56923,8.13894 2.09453,2.80849 4.18872,5.61661 6.28269,8.42451" />
        <path
           style="fill:none;stroke:#000000;stroke-width:0.264583px;stroke-linecap:butt;stroke-linejoin:miter;stroke-opacity:1"
           d="m 154.21154,121.01322 c -3.99777,-1.40398 -7.99584,-2.80806 -10.82783,-3.71241 -2.83199,-0.90435 -4.49782,-1.30891 -6.12801,-1.85624 -1.63018,-0.54733 -3.22462,-1.23746 -5.42597,-2.35597 -2.20135,-1.11851 -5.00947,-2.66535 -7.79387,-4.10516 -2.7844,-1.43981 -5.54492,-2.77247 -7.27029,-3.53405 -1.72537,-0.76157 -2.4155,-0.95195 -3.04619,-1.0234 -0.6307,-0.0714 -1.20184,-0.0238 -1.58272,0.0833 -0.38087,0.10709 -0.57126,0.27368 -0.64264,0.51182 -0.0714,0.23814 -0.0238,0.54749 0.13099,0.88067 0.15478,0.33318 0.41655,0.69016 1.01154,1.29699 0.59499,0.60684 1.5231,1.46355 2.45095,2.32003"
           id="path98"
           inkscape:path-effect="#path-effect100"
           inkscape:original-d="m 154.21154,121.01322 c -3.99782,-1.40382 -7.99589,-2.80791 -11.99424,-4.21226 -1.66563,-0.40431 -3.33146,-0.80887 -4.99759,-1.2137 -1.59424,-0.6899 -3.18868,-1.38003 -4.78342,-2.07044 -2.80796,-1.54664 -5.61608,-3.09348 -8.42451,-4.64062 -2.76037,-1.33246 -5.52089,-2.66512 -8.28173,-3.99808 -0.6899,-0.19012 -1.38003,-0.3805 -2.07044,-0.57115 -0.5709,0.0479 -1.14204,0.0955 -1.71346,0.14279 -0.19012,0.16685 -0.3805,0.33344 -0.57115,0.49976 0.0479,0.30964 0.0954,0.61901 0.14279,0.92812 0.26204,0.35724 0.52382,0.71421 0.78533,1.07092 0.92841,0.85701 1.85652,1.71372 2.78438,2.57019" />
        <path
           style="fill:none;stroke:#000000;stroke-width:0.264583px;stroke-linecap:butt;stroke-linejoin:miter;stroke-opacity:1"
           d="m 121.65577,116.94375 c 0.19034,-0.73756 0.38072,-1.4753 0.48783,-2.17732 0.10711,-0.70201 0.13091,-1.36834 -0.0118,-2.09416 -0.14273,-0.72582 -0.4521,-1.51114 -0.85661,-2.18941 -0.40452,-0.67827 -0.90427,-1.24941 -1.4516,-1.7611 -0.54734,-0.51169 -1.14228,-0.96385 -1.72533,-1.34465 -0.58305,-0.3808 -1.15419,-0.69016 -1.72566,-0.99971"
           id="path102"
           inkscape:path-effect="#path-effect104"
           inkscape:original-d="m 121.65577,116.94375 c 0.19065,-0.73748 0.38103,-1.47522 0.57115,-2.21322 0.0241,-0.6661 0.0479,-1.33243 0.0714,-1.99904 -0.30912,-0.78509 -0.61849,-1.57041 -0.92813,-2.35601 -0.49951,-0.5709 -0.99926,-1.14205 -1.49928,-1.71346 -0.5947,-0.45191 -1.18964,-0.90407 -1.78485,-1.35649 -0.57091,-0.30912 -1.14205,-0.61849 -1.71347,-0.92813" />
        <path
           style="fill:none;stroke:#000000;stroke-width:0.264583px;stroke-linecap:butt;stroke-linejoin:miter;stroke-opacity:1"
           d="m 117.02411,112.50241 c 0.11605,-0.0684 0.34808,-0.20529 0.52055,-0.41938 0.17247,-0.21408 0.28551,-0.5056 0.33611,-0.83277 0.0506,-0.32716 0.0387,-0.69007 -0.0178,-1.05893 -0.0565,-0.36885 -0.15762,-0.74366 -0.28551,-1.11551 -0.12789,-0.37184 -0.28258,-0.74071 -0.47592,-1.13041 -0.19334,-0.3897 -0.42536,-0.80021 -0.61871,-1.12149 -0.19335,-0.32128 -0.34803,-0.55331 -0.51457,-0.73481 -0.16655,-0.18151 -0.34503,-0.31239 -0.50869,-0.3631 -0.16366,-0.0507 -0.3124,-0.021 -0.41069,0.0564 -0.0983,0.0774 -0.14589,0.20237 -0.16966,0.372 -0.0238,0.16963 -0.0238,0.3838 0.0119,0.70808 0.0357,0.32427 0.10712,0.75858 0.15172,1.06794 0.0446,0.30937 0.0624,0.49381 0.12789,0.86567 0.0655,0.37185 0.1785,0.93109 0.31834,1.43384 0.13985,0.50274 0.30643,0.94895 0.43734,1.27024 0.13091,0.32128 0.22609,0.5176 0.38384,0.67519 0.15775,0.15759 0.37787,0.27657 0.48778,0.33598 0.10991,0.0594 0.10995,0.0594 0.22601,-0.009 z"
           id="path106"
           inkscape:path-effect="#path-effect108"
           inkscape:original-d="m 116.90805,112.57085 c 0.2323,-0.13657 0.46433,-0.27341 0.69609,-0.41052 0.11331,-0.29126 0.22635,-0.58278 0.33913,-0.87458 -0.0117,-0.36266 -0.0235,-0.72557 -0.0357,-1.08876 -0.10088,-0.37456 -0.20202,-0.74937 -0.30343,-1.12446 -0.15442,-0.36861 -0.30911,-0.73747 -0.46406,-1.10661 -0.23177,-0.41026 -0.4638,-0.82077 -0.69609,-1.23155 -0.15443,-0.23177 -0.30911,-0.4638 -0.46406,-0.69609 -0.17823,-0.13063 -0.35671,-0.26152 -0.53546,-0.39267 -0.14848,0.03 -0.29721,0.0598 -0.44621,0.0892 -0.0473,0.12521 -0.0949,0.25015 -0.14279,0.37482 2.6e-4,0.21446 2.6e-4,0.42863 0,0.64255 0.0717,0.43459 0.14305,0.8689 0.21418,1.30295 0.0181,0.1847 0.036,0.36913 0.0535,0.5533 0.11331,0.55953 0.22635,1.11877 0.33913,1.67777 0.16685,0.44648 0.33343,0.89269 0.49976,1.33864 0.0955,0.1966 0.19065,0.39293 0.28557,0.589 0.22041,0.11926 0.44053,0.23824 0.6604,0.35697 z" />
        <path
           style="fill:none;stroke:#000000;stroke-width:0.264583px;stroke-linecap:butt;stroke-linejoin:miter;stroke-opacity:1"
           d="m 122.82597,117.32329 c -0.2859,-0.555 -0.57198,-1.11032 -0.85821,-1.66595"
           id="path114"
           inkscape:path-effect="#path-effect116"
           inkscape:original-d="m 122.82597,117.32329 c -0.2858,-0.55505 -0.57187,-1.11037 -0.85821,-1.66595" />
        <path
           style="fill:none;stroke:#000000;stroke-width:0.264583px;stroke-linecap:butt;stroke-linejoin:miter;stroke-opacity:1"
           d="m 113.3842,112.65586 c 0,0 0,0 0,0 0,0 0,0 0,0 0,0 0,0 0,0 z"
           id="path118"
           inkscape:path-effect="#path-effect120"
           inkscape:original-d="m 113.3842,112.65586 c 2.7e-4,2.6e-4 2.7e-4,2.6e-4 0,0 v 0 c 2.7e-4,2.6e-4 0,0 0,0 z"
           sodipodi:nodetypes="ccccc" />
        <path
           style="fill:none;stroke:#000000;stroke-width:0.264583px;stroke-linecap:butt;stroke-linejoin:miter;stroke-opacity:1"
           d="m 118.44303,121.15601 c -0.44021,-2.4747 -0.88048,-4.9497 -1.3208,-7.425"
           id="path363"
           inkscape:path-effect="#path-effect365"
           inkscape:original-d="m 118.44303,121.15601 c -0.44,-2.47474 -0.88027,-4.94974 -1.3208,-7.425" />
        <path
           style="fill:none;stroke:#000000;stroke-width:0.264583px;stroke-linecap:butt;stroke-linejoin:miter;stroke-opacity:1"
           d="m 128.40252,113.19555 c 0.16682,0.21448 0.3334,0.42866 0.46421,0.74995 0.13082,0.32129 0.226,0.74963 0.27952,1.26128 0.0535,0.51165 0.0654,1.10658 -0.0239,1.69554 -0.0893,0.58896 -0.27965,1.172 -0.53548,1.85024 -0.25584,0.67824 -0.5771,1.45166 -0.93408,2.20723 -0.35697,0.75558 -0.74963,1.49331 -1.08875,2.0942 -0.33913,0.60089 -0.6247,1.06495 -0.63049,1.44582 -0.006,0.38088 0.26787,0.67835 0.5413,0.97555"
           id="path367"
           inkscape:path-effect="#path-effect369"
           inkscape:original-d="m 128.40252,113.19555 c 0.16685,0.21445 0.33344,0.42863 0.49976,0.64255 0.0955,0.42864 0.19065,0.85699 0.28558,1.28509 0.0122,0.59523 0.024,1.19017 0.0357,1.78486 -0.19012,0.58333 -0.3805,1.16637 -0.57115,1.74916 -0.32102,0.77372 -0.64228,1.54714 -0.96382,2.32031 -0.39241,0.73802 -0.78507,1.47575 -1.17801,2.21322 -0.28531,0.46434 -0.57088,0.92839 -0.85673,1.39219 0.27395,0.29775 0.54762,0.59522 0.82104,0.89243" />
        <path
           style="fill:none;stroke:#000000;stroke-width:0.264583px;stroke-linecap:butt;stroke-linejoin:miter;stroke-opacity:1"
           d="m 123.37536,118.84183 c 0.13697,0.12483 0.38684,0.18433 0.67234,0.15451 0.2855,-0.0298 0.60677,-0.1488 0.94583,-0.38081 0.33905,-0.23201 0.69601,-0.57707 1.01727,-0.95187 0.32126,-0.37479 0.60683,-0.77935 0.8686,-1.2077 0.26177,-0.42835 0.49975,-0.88051 0.74963,-1.42785 0.24988,-0.54734 0.51166,-1.18988 0.60097,-1.6717 0.0893,-0.48182 0.006,-0.80309 -0.12476,-0.9817 -0.13077,-0.17861 -0.30925,-0.21431 -0.5236,-0.0894 -0.21435,0.12491 -0.46423,0.41049 -0.74386,0.73177 -0.27963,0.32128 -0.589,0.67824 -0.99953,1.19586 -0.41053,0.51763 -0.92218,1.19586 -1.33271,1.79084 -0.41052,0.59497 -0.71989,1.10662 -0.92218,1.48147 -0.20229,0.37484 -0.29748,0.61283 -0.33313,0.8271 -0.0357,0.21426 -0.0118,0.40464 0.12513,0.52947 z"
           id="path371"
           inkscape:path-effect="#path-effect373"
           inkscape:original-d="m 123.26214,118.90709 c 0.25014,0.0598 0.50002,0.11925 0.74964,0.17849 0.32154,-0.11873 0.64281,-0.23772 0.96382,-0.35698 0.35724,-0.34481 0.71421,-0.68987 1.07091,-1.03521 0.28585,-0.40431 0.57142,-0.80887 0.85673,-1.2137 0.23825,-0.45191 0.47623,-0.90407 0.71394,-1.3565 0.26205,-0.64229 0.52383,-1.28483 0.78534,-1.92764 -0.083,-0.32102 -0.16632,-0.64228 -0.24988,-0.96382 -0.17822,-0.0354 -0.3567,-0.0711 -0.53546,-0.10709 -0.24961,0.28584 -0.49949,0.57141 -0.74963,0.85673 -0.30912,0.35724 -0.61849,0.7142 -0.92813,1.07091 -0.5114,0.67852 -1.02305,1.35676 -1.53498,2.03474 -0.30911,0.51193 -0.61848,1.02358 -0.92812,1.53497 -0.0949,0.23825 -0.19012,0.47623 -0.28558,0.71394 0.0241,0.19066 0.0479,0.38104 0.0714,0.57116 z" />
        <path
           style="fill:none;stroke:#000000;stroke-width:0.264583px;stroke-linecap:butt;stroke-linejoin:miter;stroke-opacity:1"
           d="m 125.65384,130.97271 c -1.18959,-0.79703 -2.3795,-1.59426 -3.34336,-2.41527 -0.96386,-0.821 -1.70158,-1.66581 -2.1122,-2.32025 -0.41061,-0.65445 -0.4939,-1.1185 -0.46421,-1.54695 0.0297,-0.42845 0.17249,-0.8211 0.70796,-1.666 0.53548,-0.84489 1.46358,-2.14186 2.39174,-3.43891"
           id="path379"
           inkscape:path-effect="#path-effect381"
           inkscape:original-d="m 125.65384,130.97271 c -1.18963,-0.79697 -2.37954,-1.5942 -3.56971,-2.3917 -0.73749,-0.84459 -1.47521,-1.6894 -2.21322,-2.5345 -0.083,-0.46381 -0.16632,-0.92786 -0.24988,-1.39219 0.14306,-0.39241 0.28584,-0.78507 0.42837,-1.178 0.9284,-1.29676 1.85651,-2.59373 2.78437,-3.89099" />
        <path
           style="fill:none;stroke:#000000;stroke-width:0.264583px;stroke-linecap:butt;stroke-linejoin:miter;stroke-opacity:1"
           d="m 128.80122,128.46199 c 0.14881,-0.0476 0.4463,-0.14282 0.67228,-0.31529 0.22597,-0.17248 0.38066,-0.42235 0.5175,-0.79117 0.13684,-0.36882 0.25582,-0.85667 0.32129,-1.41589 0.0655,-0.55923 0.0774,-1.18986 0.0595,-1.76101 -0.0178,-0.57114 -0.0654,-1.0828 -0.16057,-1.529 -0.0952,-0.4462 -0.23793,-0.82696 -0.38062,-1.06499 -0.1427,-0.23804 -0.2855,-0.33324 -0.46413,-0.28575 -0.17863,0.0475 -0.39281,0.23787 -0.53563,0.49976 -0.14282,0.26189 -0.21421,0.59505 -0.2856,0.95203 -0.0714,0.35698 -0.14279,0.73774 -0.21418,1.16612 -0.0714,0.42837 -0.14279,0.90434 -0.19633,1.36841 -0.0535,0.46408 -0.0892,0.91623 -0.11898,1.3565 -0.0297,0.44027 -0.0535,0.86863 -0.0237,1.1483 0.0299,0.27967 0.11313,0.41053 0.23219,0.50564 0.11906,0.0951 0.27373,0.15459 0.35092,0.18427 0.0772,0.0297 0.0772,0.0297 0.22601,-0.0179 z"
           id="path383"
           inkscape:path-effect="#path-effect385"
           inkscape:original-d="m 128.6524,128.50961 c 0.29774,-0.0949 0.59522,-0.19012 0.89243,-0.28558 0.15496,-0.24961 0.30964,-0.49949 0.46406,-0.74963 0.11926,-0.48761 0.23825,-0.97546 0.35697,-1.46359 0.0122,-0.63039 0.024,-1.26103 0.0357,-1.89194 -0.0473,-0.51141 -0.0949,-1.02306 -0.14279,-1.53498 -0.14253,-0.38051 -0.28531,-0.76127 -0.42836,-1.14231 -0.14253,-0.0949 -0.28532,-0.19011 -0.42837,-0.28557 -0.21392,0.19065 -0.4281,0.38103 -0.64255,0.57115 -0.0711,0.33345 -0.14252,0.66661 -0.21418,0.99952 -0.0711,0.38104 -0.14253,0.7618 -0.21418,1.14231 -0.0711,0.47623 -0.14253,0.95219 -0.21419,1.42788 -0.0354,0.45244 -0.0711,0.90459 -0.10709,1.35649 -0.0235,0.42864 -0.0473,0.857 -0.0714,1.2851 0.0836,0.13116 0.16685,0.26204 0.24988,0.39267 0.15495,0.0598 0.30964,0.11925 0.46406,0.17848 z" />
        <path
           style="fill:none;stroke:#000000;stroke-width:0.264583px;stroke-linecap:butt;stroke-linejoin:miter;stroke-opacity:1"
           d="m 140.03978,137.64808 c -0.65413,-0.32112 -1.30858,-0.6424 -2.04038,-1.07075 -0.73181,-0.42835 -1.54093,-0.9638 -2.15972,-1.50516 -0.61879,-0.54136 -1.04715,-1.08871 -1.39823,-1.73125 -0.35108,-0.64255 -0.62474,-1.38027 -0.79138,-2.10018 -0.16663,-0.71992 -0.22613,-1.42195 -0.26184,-2.14186 -0.0357,-0.71991 -0.0476,-1.45763 -0.10708,-2.13586 -0.0595,-0.67824 -0.16656,-1.29697 -0.39851,-1.86218 -0.23195,-0.56521 -0.58892,-1.07686 -1.047,-1.51718 -0.45807,-0.44032 -1.01731,-0.80918 -1.57687,-1.17825"
           id="path387"
           inkscape:path-effect="#path-effect389"
           inkscape:original-d="m 140.03978,137.64808 c -0.65418,-0.32102 -1.30863,-0.64229 -1.96334,-0.96383 -0.80889,-0.5352 -1.61801,-1.07065 -2.4274,-1.60637 -0.42811,-0.5471 -0.85647,-1.09445 -1.2851,-1.64206 -0.27342,-0.7375 -0.54709,-1.47522 -0.82103,-2.21323 -0.0592,-0.70179 -0.11873,-1.40382 -0.17849,-2.10613 -0.0116,-0.73749 -0.0236,-1.47521 -0.0357,-2.21322 -0.10682,-0.6185 -0.21392,-1.23723 -0.32127,-1.85625 -0.35671,-0.5114 -0.71368,-1.02305 -1.07091,-1.53497 -0.55901,-0.36862 -1.11825,-0.73748 -1.67777,-1.10661" />
        <path
           style="fill:none;stroke:#000000;stroke-width:0.264583px;stroke-linecap:butt;stroke-linejoin:miter;stroke-opacity:1"
           d="m 178.00427,166.0902 c -2.65851,-2.42295 -5.3173,-4.84615 -7.31981,-6.46165 -2.0025,-1.61551 -3.34869,-2.42323 -4.47616,-3.0627 -1.12747,-0.63947 -2.03615,-1.11064 -3.11314,-1.5482 -1.07699,-0.43755 -2.32222,-0.84141 -4.24061,-1.53136 -1.91839,-0.68994 -4.50982,-1.66593 -6.74794,-2.64193 -2.23811,-0.976 -4.12279,-1.95199 -5.77192,-2.82704 -1.64914,-0.87504 -3.06265,-1.64911 -4.44254,-2.40637 -1.37989,-0.75725 -2.72608,-1.49766 -3.7021,-1.98569 -0.97602,-0.48803 -1.58181,-0.72362 -2.47371,-1.39667 -0.89191,-0.67306 -2.06983,-1.78367 -3.18049,-2.97844 -1.11066,-1.19476 -2.15397,-2.47366 -2.92806,-3.48332 -0.7741,-1.00967 -1.27893,-1.75008 -1.48097,-2.49055 -0.20205,-0.74047 -0.10109,-1.48087 -0.005,-2.12655 0.0965,-0.64567 0.18837,-1.19657 0.28034,-1.74769"
           id="path399"
           inkscape:path-effect="#path-effect401"
           inkscape:original-d="m 178.00427,166.0902 c -2.65853,-2.42293 -5.31731,-4.84614 -7.97637,-7.2696 -1.34598,-0.80749 -2.69218,-1.6152 -4.03867,-2.4232 -0.90845,-0.47092 -1.81713,-0.94209 -2.7261,-1.41353 -1.24501,-0.40362 -2.49024,-0.80747 -3.73577,-1.21161 -2.59126,-0.97576 -5.18269,-1.95175 -7.77443,-2.92803 -1.88448,-0.97577 -3.76916,-1.95176 -5.65413,-2.92803 -1.4133,-0.77383 -2.82681,-1.54789 -4.2406,-2.32224 -1.34599,-0.74017 -2.69218,-1.48058 -4.03867,-2.22126 -0.60555,-0.23533 -1.21134,-0.47092 -1.8174,-0.70677 -1.17771,-1.11039 -2.35563,-2.221 -3.53384,-3.3319 -1.04307,-1.27867 -2.08638,-2.55756 -3.12996,-3.83673 -0.50458,-0.74018 -1.00941,-1.48059 -1.5145,-2.22127 0.10123,-0.74018 0.20219,-1.48058 0.3029,-2.22127 0.0922,-0.55065 0.18413,-1.10155 0.27579,-1.65272" />
        <path
           style="fill:none;stroke:#000000;stroke-width:0.264583px;stroke-linecap:butt;stroke-linejoin:miter;stroke-opacity:1"
           d="m 142.43149,136.04171 c 0,0 0,0 0,0 z"
           id="path403"
           inkscape:path-effect="#path-effect405"
           inkscape:original-d="m 142.43149,136.04171 c -0.23772,-0.14253 -0.4757,-0.28532 0,0 z" />
        <path
           style="fill:none;stroke:#000000;stroke-width:0.264583px;stroke-linecap:butt;stroke-linejoin:miter;stroke-opacity:1"
           d="m 130.72283,118.51442 c 2.80848,1.90405 5.61665,3.8079 8.42452,5.71154"
           id="path407"
           inkscape:path-effect="#path-effect409"
           inkscape:original-d="m 130.72283,118.51442 c 2.80844,1.90411 5.61661,3.80796 8.42452,5.71154" />
        <path
           style="fill:none;stroke:#000000;stroke-width:0.264583px;stroke-linecap:butt;stroke-linejoin:miter;stroke-opacity:1"
           d="m 140.00408,122.22692 c -0.26179,3.73654 -0.52357,7.47284 -0.78533,11.2089"
           id="path411"
           inkscape:path-effect="#path-effect413"
           inkscape:original-d="m 140.00408,122.22692 c -0.26151,3.73656 -0.52329,7.47286 -0.78533,11.2089" />
        <path
           style="fill:none;stroke:#000000;stroke-width:0.264583px;stroke-linecap:butt;stroke-linejoin:miter;stroke-opacity:1"
           d="m 148.14303,139.64711 c 3.26065,0.90441 6.52098,1.80874 9.25779,2.6893 2.73681,0.88056 4.94997,1.73727 6.25887,2.28466 1.3089,0.54739 1.71346,0.78536 2.18941,1.11856 0.47596,0.3332 1.02331,0.76156 1.57037,1.18969"
           id="path415"
           inkscape:path-effect="#path-effect417"
           inkscape:original-d="m 148.14303,139.64711 c 3.2606,0.9046 6.52093,1.80892 9.781,2.71298 2.21354,0.85702 4.42671,1.71373 6.63967,2.5702 0.40484,0.23825 0.8094,0.47622 1.2137,0.71394 0.54763,0.42864 1.09498,0.85699 1.64207,1.28509" />
        <path
           style="fill:none;stroke:#000000;stroke-width:0.264583px;stroke-linecap:butt;stroke-linejoin:miter;stroke-opacity:1"
           d="m 152.71226,108.37644 c -0.32697,-0.35075 -0.6542,-0.70177 -0.98167,-1.05306"
           id="path2353"
           inkscape:path-effect="#path-effect2355"
           inkscape:original-d="m 152.71226,108.37644 c -0.32696,-0.35076 -0.65419,-0.70178 -0.98167,-1.05306" />
        <path
           style="fill:none;stroke:#000000;stroke-width:0.264583px;stroke-linecap:butt;stroke-linejoin:miter;stroke-opacity:1"
           d="m 117.21105,114.18255 c -0.0295,-0.1502 -0.0591,-0.30071 -0.10395,-0.49561 -0.0448,-0.19489 -0.10485,-0.43412 -0.12126,-0.63894 -0.0164,-0.20482 0.0109,-0.37509 0.0383,-0.5456"
           id="path4402"
           inkscape:path-effect="#path-effect4404"
           inkscape:original-d="m 117.21105,114.18255 c -0.0293,-0.15025 -0.0589,-0.30076 -0.0888,-0.45154 -0.0598,-0.239 -0.11982,-0.47824 -0.18012,-0.71776 0.0276,-0.17002 0.0549,-0.3403 0.082,-0.51085" />
        <path
           style="fill:none;stroke:#000000;stroke-width:0.264583px;stroke-linecap:butt;stroke-linejoin:miter;stroke-opacity:1"
           d="m 122.60739,119.88876 c 0.0754,-0.10109 0.15089,-0.20224 0.27888,-0.37673 0.128,-0.17449 0.30852,-0.42232 0.48908,-0.6702"
           id="path4907"
           inkscape:path-effect="#path-effect4909"
           inkscape:original-d="m 122.60739,119.88876 c 0.0757,-0.10088 0.15118,-0.20202 0.22638,-0.30343 0.1808,-0.24757 0.36132,-0.4954 0.54158,-0.7435" />
        <path
           style="fill:none;stroke:#000000;stroke-width:0.264583px;stroke-linecap:butt;stroke-linejoin:miter;stroke-opacity:1"
           d="m 128.32292,129.84427 c 0.0265,-0.1472 0.053,-0.29461 0.13274,-0.52503 0.0797,-0.23043 0.2126,-0.54378 0.34555,-0.85725"
           id="path5264"
           inkscape:path-effect="#path-effect5266"
           inkscape:original-d="m 128.32292,129.84427 c 0.0268,-0.14715 0.0533,-0.29456 0.0796,-0.44223 0.13317,-0.31309 0.26606,-0.62644 0.39869,-0.94005" />
        <path
           style="fill:#aa0000;stroke-width:0.465988"
           d="m 567.8992,404.9701 c -3.85159,-1.37383 -6.6739,-4.14777 -10.69419,-10.51087 -2.93697,-4.64848 -4.07876,-7.3104 -4.04089,-9.42077 0.0524,-2.92248 0.99921,-5.68606 2.015,-5.88169 2.3534,-0.45322 17.81782,19.0015 18.73014,23.5631 0.51058,2.5529 -2.25674,3.58901 -6.01006,2.25023 z"
           id="path5510"
           transform="scale(0.26458333)"
           sodipodi:nodetypes="scssss" />
        <path
           style="fill:#aa0000;stroke-width:0.465988"
           d="m 440.01754,423.16987 c -2.36586,-3.0077 -6.16697,-20.7538 -4.79852,-22.40268 0.9156,-1.10323 2.03941,-0.16683 4.45928,3.71569 4.6685,7.49031 6.4071,15.17343 4.12896,18.24642 -1.29448,1.74611 -2.63976,1.90251 -3.78972,0.44057 z"
           id="path5549"
           transform="scale(0.26458333)" />
        <path
           style="fill:#aa0000;stroke-width:0.465988"
           d="m 466.60399,448.23145 c -0.74406,-1.939 7.48767,-14.31369 14.17917,-21.31543 2.02576,-2.11969 2.19855,-2.20611 2.79505,-1.39797 0.84525,1.14516 0.44304,3.21795 -1.50709,7.76666 -3.96242,9.24246 -9.6994,15.69517 -13.95426,15.69517 -0.69561,0 -1.34988,-0.32367 -1.51287,-0.74843 z"
           id="path5588"
           transform="scale(0.26458333)" />
        <path
           style="fill:#aa0000;stroke-width:0.465988"
           d="m 485.10795,484.17883 c -0.84989,-1.02405 -0.37305,-10.00114 0.90434,-17.0254 1.43919,-7.91398 3.22973,-9.79424 4.88128,-5.12587 0.72286,2.0433 0.90977,3.8384 0.92188,8.85378 0.0169,6.99375 -0.76902,10.71548 -2.62948,12.45222 -1.49336,1.39405 -3.31007,1.7706 -4.07802,0.84527 z"
           id="path5627"
           transform="scale(0.26458333)" />
      </g>
      <text
         xml:space="preserve"
         style="font-style:normal;font-variant:normal;font-weight:normal;font-stretch:normal;font-size:13.4306px;line-height:3.25;font-family:'AR BERKLEY';-inkscape-font-specification:'AR BERKLEY';letter-spacing:0.0302189px;word-spacing:0.00755473px;white-space:pre;inline-size:53.6418;fill:url(#linearGradient190);fill-opacity:1;stroke:none;stroke-width:0.251824"
         x="79.333138"
         y="93.803795"
         id="text13951"
         transform="matrix(1.0384081,0,0,1.0332677,-75.343435,-80.273305)"><tspan
           x="79.333138"
           y="93.803795"
           id="tspan3948"><tspan
             style="font-weight:bold;-inkscape-font-specification:'AR BERKLEY Bold'"
             id="tspan3946">NAILS</tspan></tspan></text>
    </g>
  </g>
</svg>
