<?xml version="1.0" encoding="UTF-8" standalone="no"?>
<!-- Created with Inkscape (http://www.inkscape.org/) -->

<svg
   width="170"
   height="150"
   viewBox="0 0 44.979166 39.687501"
   version="1.1"
   id="svg5"
   inkscape:version="1.1 (c68e22c387, 2021-05-23)"
   sodipodi:docname="nails-logo2.svg"
   xmlns:inkscape="http://www.inkscape.org/namespaces/inkscape"
   xmlns:sodipodi="http://sodipodi.sourceforge.net/DTD/sodipodi-0.dtd"
   xmlns="http://www.w3.org/2000/svg"
   xmlns:svg="http://www.w3.org/2000/svg">
  <sodipodi:namedview
     id="namedview7"
     pagecolor="#ffffff"
     bordercolor="#cccccc"
     borderopacity="1"
     inkscape:pageshadow="0"
     inkscape:pageopacity="1"
     inkscape:pagecheckerboard="0"
     inkscape:document-units="mm"
     showgrid="false"
     units="px"
     inkscape:zoom="1.4142136"
     inkscape:cx="40.305086"
     inkscape:cy="56.214989"
     inkscape:window-width="1350"
     inkscape:window-height="689"
     inkscape:window-x="-4"
     inkscape:window-y="2"
     inkscape:window-maximized="0"
     inkscape:current-layer="g970" />
  <defs
     id="defs2">
    <inkscape:path-effect
       effect="bspline"
       id="path-effect9044"
       is_visible="true"
       lpeversion="1"
       weight="33.333333"
       steps="2"
       helper_size="0"
       apply_no_weight="true"
       apply_with_weight="true"
       only_selected="false" />
    <inkscape:path-effect
       effect="bspline"
       id="path-effect9040"
       is_visible="true"
       lpeversion="1"
       weight="33.333333"
       steps="2"
       helper_size="0"
       apply_no_weight="true"
       apply_with_weight="true"
       only_selected="false" />
    <inkscape:path-effect
       effect="bspline"
       id="path-effect9036"
       is_visible="true"
       lpeversion="1"
       weight="33.333333"
       steps="2"
       helper_size="0"
       apply_no_weight="true"
       apply_with_weight="true"
       only_selected="false" />
    <inkscape:path-effect
       effect="bspline"
       id="path-effect9032"
       is_visible="true"
       lpeversion="1"
       weight="33.333333"
       steps="2"
       helper_size="0"
       apply_no_weight="true"
       apply_with_weight="true"
       only_selected="false" />
    <inkscape:path-effect
       effect="bspline"
       id="path-effect9028"
       is_visible="true"
       lpeversion="1"
       weight="33.333333"
       steps="2"
       helper_size="0"
       apply_no_weight="true"
       apply_with_weight="true"
       only_selected="false" />
    <inkscape:path-effect
       effect="bspline"
       id="path-effect9024"
       is_visible="true"
       lpeversion="1"
       weight="33.333333"
       steps="2"
       helper_size="0"
       apply_no_weight="true"
       apply_with_weight="true"
       only_selected="false" />
    <inkscape:path-effect
       effect="bspline"
       id="path-effect9020"
       is_visible="true"
       lpeversion="1"
       weight="33.333333"
       steps="2"
       helper_size="0"
       apply_no_weight="true"
       apply_with_weight="true"
       only_selected="false" />
    <inkscape:path-effect
       effect="bspline"
       id="path-effect5266"
       is_visible="true"
       lpeversion="1"
       weight="33.333333"
       steps="2"
       helper_size="0"
       apply_no_weight="true"
       apply_with_weight="true"
       only_selected="false" />
    <inkscape:path-effect
       effect="bspline"
       id="path-effect4913"
       is_visible="true"
       lpeversion="1"
       weight="33.333333"
       steps="2"
       helper_size="0"
       apply_no_weight="true"
       apply_with_weight="true"
       only_selected="false" />
    <inkscape:path-effect
       effect="bspline"
       id="path-effect4909"
       is_visible="true"
       lpeversion="1"
       weight="33.333333"
       steps="2"
       helper_size="0"
       apply_no_weight="true"
       apply_with_weight="true"
       only_selected="false" />
    <inkscape:path-effect
       effect="bspline"
       id="path-effect4404"
       is_visible="true"
       lpeversion="1"
       weight="33.333333"
       steps="2"
       helper_size="0"
       apply_no_weight="true"
       apply_with_weight="true"
       only_selected="false" />
    <inkscape:path-effect
       effect="bspline"
       id="path-effect3741"
       is_visible="true"
       lpeversion="1"
       weight="33.333333"
       steps="2"
       helper_size="0"
       apply_no_weight="true"
       apply_with_weight="true"
       only_selected="false" />
    <inkscape:path-effect
       effect="bspline"
       id="path-effect2355"
       is_visible="true"
       lpeversion="1"
       weight="33.333333"
       steps="2"
       helper_size="0"
       apply_no_weight="true"
       apply_with_weight="true"
       only_selected="false" />
    <inkscape:path-effect
       effect="bspline"
       id="path-effect417"
       is_visible="true"
       lpeversion="1"
       weight="33.333333"
       steps="2"
       helper_size="0"
       apply_no_weight="true"
       apply_with_weight="true"
       only_selected="false" />
    <inkscape:path-effect
       effect="bspline"
       id="path-effect413"
       is_visible="true"
       lpeversion="1"
       weight="33.333333"
       steps="2"
       helper_size="0"
       apply_no_weight="true"
       apply_with_weight="true"
       only_selected="false" />
    <inkscape:path-effect
       effect="bspline"
       id="path-effect409"
       is_visible="true"
       lpeversion="1"
       weight="33.333333"
       steps="2"
       helper_size="0"
       apply_no_weight="true"
       apply_with_weight="true"
       only_selected="false" />
    <inkscape:path-effect
       effect="bspline"
       id="path-effect405"
       is_visible="true"
       lpeversion="1"
       weight="33.333333"
       steps="2"
       helper_size="0"
       apply_no_weight="true"
       apply_with_weight="true"
       only_selected="false" />
    <inkscape:path-effect
       effect="bspline"
       id="path-effect401"
       is_visible="true"
       lpeversion="1"
       weight="33.333333"
       steps="2"
       helper_size="0"
       apply_no_weight="true"
       apply_with_weight="true"
       only_selected="false" />
    <inkscape:path-effect
       effect="bspline"
       id="path-effect397"
       is_visible="true"
       lpeversion="1"
       weight="33.333333"
       steps="2"
       helper_size="0"
       apply_no_weight="true"
       apply_with_weight="true"
       only_selected="false" />
    <inkscape:path-effect
       effect="bspline"
       id="path-effect389"
       is_visible="true"
       lpeversion="1"
       weight="33.333333"
       steps="2"
       helper_size="0"
       apply_no_weight="true"
       apply_with_weight="true"
       only_selected="false" />
    <inkscape:path-effect
       effect="bspline"
       id="path-effect385"
       is_visible="true"
       lpeversion="1"
       weight="33.333333"
       steps="2"
       helper_size="0"
       apply_no_weight="true"
       apply_with_weight="true"
       only_selected="false" />
    <inkscape:path-effect
       effect="bspline"
       id="path-effect381"
       is_visible="true"
       lpeversion="1"
       weight="33.333333"
       steps="2"
       helper_size="0"
       apply_no_weight="true"
       apply_with_weight="true"
       only_selected="false" />
    <inkscape:path-effect
       effect="bspline"
       id="path-effect377"
       is_visible="true"
       lpeversion="1"
       weight="33.333333"
       steps="2"
       helper_size="0"
       apply_no_weight="true"
       apply_with_weight="true"
       only_selected="false" />
    <inkscape:path-effect
       effect="bspline"
       id="path-effect373"
       is_visible="true"
       lpeversion="1"
       weight="33.333333"
       steps="2"
       helper_size="0"
       apply_no_weight="true"
       apply_with_weight="true"
       only_selected="false" />
    <inkscape:path-effect
       effect="bspline"
       id="path-effect369"
       is_visible="true"
       lpeversion="1"
       weight="33.333333"
       steps="2"
       helper_size="0"
       apply_no_weight="true"
       apply_with_weight="true"
       only_selected="false" />
    <inkscape:path-effect
       effect="bspline"
       id="path-effect365"
       is_visible="true"
       lpeversion="1"
       weight="33.333333"
       steps="2"
       helper_size="0"
       apply_no_weight="true"
       apply_with_weight="true"
       only_selected="false" />
    <inkscape:path-effect
       effect="bspline"
       id="path-effect120"
       is_visible="true"
       lpeversion="1"
       weight="33.333333"
       steps="2"
       helper_size="0"
       apply_no_weight="true"
       apply_with_weight="true"
       only_selected="false" />
    <inkscape:path-effect
       effect="bspline"
       id="path-effect116"
       is_visible="true"
       lpeversion="1"
       weight="33.333333"
       steps="2"
       helper_size="0"
       apply_no_weight="true"
       apply_with_weight="true"
       only_selected="false" />
    <inkscape:path-effect
       effect="bspline"
       id="path-effect108"
       is_visible="true"
       lpeversion="1"
       weight="33.333333"
       steps="2"
       helper_size="0"
       apply_no_weight="true"
       apply_with_weight="true"
       only_selected="false" />
    <inkscape:path-effect
       effect="bspline"
       id="path-effect104"
       is_visible="true"
       lpeversion="1"
       weight="33.333333"
       steps="2"
       helper_size="0"
       apply_no_weight="true"
       apply_with_weight="true"
       only_selected="false" />
    <inkscape:path-effect
       effect="bspline"
       id="path-effect100"
       is_visible="true"
       lpeversion="1"
       weight="33.333333"
       steps="2"
       helper_size="0"
       apply_no_weight="true"
       apply_with_weight="true"
       only_selected="false" />
    <inkscape:path-effect
       effect="bspline"
       id="path-effect96"
       is_visible="true"
       lpeversion="1"
       weight="33.333333"
       steps="2"
       helper_size="0"
       apply_no_weight="true"
       apply_with_weight="true"
       only_selected="false" />
    <inkscape:path-effect
       effect="bspline"
       id="path-effect92"
       is_visible="true"
       lpeversion="1"
       weight="33.333333"
       steps="2"
       helper_size="0"
       apply_no_weight="true"
       apply_with_weight="true"
       only_selected="false" />
    <inkscape:path-effect
       effect="bspline"
       id="path-effect88"
       is_visible="true"
       lpeversion="1"
       weight="33.333333"
       steps="2"
       helper_size="0"
       apply_no_weight="true"
       apply_with_weight="true"
       only_selected="false" />
    <inkscape:path-effect
       effect="bspline"
       id="path-effect1745"
       is_visible="true"
       lpeversion="1"
       weight="33.333333"
       steps="2"
       helper_size="0"
       apply_no_weight="true"
       apply_with_weight="true"
       only_selected="false" />
    <inkscape:path-effect
       effect="bspline"
       id="path-effect1741"
       is_visible="true"
       lpeversion="1"
       weight="33.333333"
       steps="2"
       helper_size="0"
       apply_no_weight="true"
       apply_with_weight="true"
       only_selected="false" />
    <pattern
       id="EMFhbasepattern"
       patternUnits="userSpaceOnUse"
       width="6"
       height="6"
       x="0"
       y="0" />
  </defs>
  <g
     inkscape:label="Warstwa 1"
     inkscape:groupmode="layer"
     id="layer1">
    <g
       id="g3315"
       transform="matrix(1.1173778,0,0,1.0553128,257.96096,23.351108)">
      <path
         style="fill:#ff00ff;stroke-width:1.07935"
         d=""
         id="path425"
         transform="matrix(0.2367895,0,0,0.25071555,-230.86279,-22.127191)" />
      <path
         style="fill:#ff00ff;stroke-width:0.269836"
         d=""
         id="path503"
         transform="matrix(0.2367895,0,0,0.25071555,-230.86279,-22.127191)" />
      <path
         style="fill:#ff00ff;stroke-width:0.269836"
         d=""
         id="path542"
         transform="matrix(0.2367895,0,0,0.25071555,-230.86279,-22.127191)" />
      <g
         id="g970"
         transform="matrix(0.48125158,0,0,0.60289881,-246.76018,-32.971441)">
        <g
           id="g1173"
           transform="matrix(1,0,0,1.0022552,0,-0.04191947)">
          <g
             id="g7481"
             transform="matrix(0.99923889,0,0,0.94252954,-78.060313,-75.743555)">
            <path
               style="fill:none;stroke:#000000;stroke-width:0.264583px;stroke-linecap:butt;stroke-linejoin:miter;stroke-opacity:1"
               d="m 146.07445,102.35014 c -0.6058,2.62513 -0.22738,5.31901 0.80773,7.67347 2.16873,4.933 9.11212,6.96735 10.70247,12.116 0.16016,0.51851 0.0365,1.12797 -0.20193,1.61547 -0.41823,0.85513 -1.62157,1.1545 -2.01934,2.01933 -0.36672,0.79734 -0.40357,1.77099 -0.20193,2.62514 0.18035,0.76398 1.2116,2.01933 1.2116,2.01933"
               id="path124"
               sodipodi:nodetypes="cssaasc" />
            <path
               style="fill:none;stroke:#000000;stroke-width:0.26033px;stroke-linecap:butt;stroke-linejoin:miter;stroke-opacity:1"
               d="m 146.07235,102.34944 c 0.41402,0.8197 0.82786,1.63906 1.25356,2.3464 0.42569,0.70734 0.86316,1.30265 1.30069,1.74315 0.43753,0.4405 0.87498,0.72624 1.33548,0.89284 0.4605,0.16661 0.94401,0.21423 1.28925,0.13088 0.34524,-0.0834 0.55247,-0.29767 0.62158,-0.59519 0.0691,-0.29751 3e-5,-0.67852 -0.71369,-1.79775 -0.71371,-1.11922 -2.07216,-2.97658 -2.92405,-3.953 -0.85189,-0.97643 -1.19726,-1.07168 -1.43919,-1.02407 -0.24194,0.0476 -0.38009,0.23812 -0.4834,0.63817 -0.10331,0.40005 -0.17178,1.00941 -0.24023,1.61857 0,0 0,0 0,0"
               id="path1739"
               inkscape:path-effect="#path-effect1741"
               inkscape:original-d="m 146.07235,102.34944 c 0.41411,0.81965 0.82796,1.63901 1.24156,2.45812 0.43774,0.59559 0.8752,1.1909 1.31243,1.78598 0.43774,0.28602 0.8752,0.57175 1.31242,0.85724 0.4838,0.0479 0.96732,0.0954 1.45058,0.14288 0.20749,-0.21406 0.41472,-0.42837 0.62169,-0.64293 -0.0688,-0.38076 -0.13789,-0.76177 -0.20722,-1.14304 -1.35826,-1.85717 -2.71671,-3.71453 -4.07545,-5.57218 -0.34513,-0.095 -0.6905,-0.19024 -1.03613,-0.285755 -0.1379,0.190765 -0.27604,0.381275 -0.41445,0.571515 -0.0683,0.60967 -0.1367,1.21904 -0.20543,1.82817 0,0 2.5e-4,2.8e-4 0,0" />
            <path
               style="fill:none;stroke:#000000;stroke-width:0.264583px;stroke-linecap:butt;stroke-linejoin:miter;stroke-opacity:1"
               d="m 152.71226,108.37644 c 0.97599,0.90458 1.95171,1.80891 2.84415,2.60614 0.89244,0.79724 1.70156,1.48737 2.54641,2.14181 0.84485,0.65443 1.72537,1.27318 2.76059,2.05853 1.03522,0.78536 2.2251,1.73726 3.21269,2.72492 0.9876,0.98766 1.77292,2.01096 2.57015,3.15329 0.79723,1.14232 1.60635,2.4036 2.83196,4.48596 1.22561,2.08237 2.86764,4.98568 4.45023,7.79388 1.58258,2.8082 3.10563,5.52112 4.91432,8.28172 1.8087,2.76059 3.90289,5.56871 5.9969,8.37658"
               id="path90"
               inkscape:path-effect="#path-effect92"
               inkscape:original-d="m 152.71226,108.37644 c 0.97598,0.90459 1.9517,1.80892 2.92716,2.71298 0.80941,0.69042 1.61853,1.38055 2.4274,2.07043 0.88081,0.61903 1.76133,1.23777 2.64159,1.85625 1.19019,0.95221 2.38007,1.90411 3.56971,2.85577 0.78562,1.0236 1.57094,2.0469 2.35601,3.06995 0.80942,1.26159 1.61853,2.52287 2.42741,3.7839 1.64236,2.90369 3.2844,5.807 4.9262,8.7101 1.52337,2.7133 3.04642,5.42622 4.56923,8.13894 2.09453,2.80849 4.18872,5.61661 6.28269,8.42451" />
            <path
               style="fill:none;stroke:#000000;stroke-width:0.264583px;stroke-linecap:butt;stroke-linejoin:miter;stroke-opacity:1"
               d="m 154.21154,121.01322 c -3.99777,-1.40398 -7.99584,-2.80806 -10.82783,-3.71241 -2.83199,-0.90435 -4.49782,-1.30891 -6.12801,-1.85624 -1.63018,-0.54733 -3.22462,-1.23746 -5.42597,-2.35597 -2.20135,-1.11851 -5.00947,-2.66535 -7.79387,-4.10516 -2.7844,-1.43981 -5.54492,-2.77247 -7.27029,-3.53405 -1.72537,-0.76157 -2.4155,-0.95195 -3.04619,-1.0234 -0.6307,-0.0714 -1.20184,-0.0238 -1.58272,0.0833 -0.38087,0.10709 -0.57126,0.27368 -0.64264,0.51182 -0.0714,0.23814 -0.0238,0.54749 0.13099,0.88067 0.15478,0.33318 0.41655,0.69016 1.01154,1.29699 0.59499,0.60684 1.5231,1.46355 2.45095,2.32003"
               id="path98"
               inkscape:path-effect="#path-effect100"
               inkscape:original-d="m 154.21154,121.01322 c -3.99782,-1.40382 -7.99589,-2.80791 -11.99424,-4.21226 -1.66563,-0.40431 -3.33146,-0.80887 -4.99759,-1.2137 -1.59424,-0.6899 -3.18868,-1.38003 -4.78342,-2.07044 -2.80796,-1.54664 -5.61608,-3.09348 -8.42451,-4.64062 -2.76037,-1.33246 -5.52089,-2.66512 -8.28173,-3.99808 -0.6899,-0.19012 -1.38003,-0.3805 -2.07044,-0.57115 -0.5709,0.0479 -1.14204,0.0955 -1.71346,0.14279 -0.19012,0.16685 -0.3805,0.33344 -0.57115,0.49976 0.0479,0.30964 0.0954,0.61901 0.14279,0.92812 0.26204,0.35724 0.52382,0.71421 0.78533,1.07092 0.92841,0.85701 1.85652,1.71372 2.78438,2.57019" />
            <path
               style="fill:none;stroke:#000000;stroke-width:0.264583px;stroke-linecap:butt;stroke-linejoin:miter;stroke-opacity:1"
               d="m 121.65577,116.94375 c 0.19034,-0.73756 0.38072,-1.4753 0.48783,-2.17732 0.10711,-0.70201 0.13091,-1.36834 -0.0118,-2.09416 -0.14273,-0.72582 -0.4521,-1.51114 -0.85661,-2.18941 -0.40452,-0.67827 -0.90427,-1.24941 -1.4516,-1.7611 -0.54734,-0.51169 -1.14228,-0.96385 -1.72533,-1.34465 -0.58305,-0.3808 -1.15419,-0.69016 -1.72566,-0.99971"
               id="path102"
               inkscape:path-effect="#path-effect104"
               inkscape:original-d="m 121.65577,116.94375 c 0.19065,-0.73748 0.38103,-1.47522 0.57115,-2.21322 0.0241,-0.6661 0.0479,-1.33243 0.0714,-1.99904 -0.30912,-0.78509 -0.61849,-1.57041 -0.92813,-2.35601 -0.49951,-0.5709 -0.99926,-1.14205 -1.49928,-1.71346 -0.5947,-0.45191 -1.18964,-0.90407 -1.78485,-1.35649 -0.57091,-0.30912 -1.14205,-0.61849 -1.71347,-0.92813" />
            <path
               style="fill:none;stroke:#000000;stroke-width:0.264583px;stroke-linecap:butt;stroke-linejoin:miter;stroke-opacity:1"
               d="m 117.02411,112.50241 c 0.11605,-0.0684 0.34808,-0.20529 0.52055,-0.41938 0.17247,-0.21408 0.28551,-0.5056 0.33611,-0.83277 0.0506,-0.32716 0.0387,-0.69007 -0.0178,-1.05893 -0.0565,-0.36885 -0.15762,-0.74366 -0.28551,-1.11551 -0.12789,-0.37184 -0.28258,-0.74071 -0.47592,-1.13041 -0.19334,-0.3897 -0.42536,-0.80021 -0.61871,-1.12149 -0.19335,-0.32128 -0.34803,-0.55331 -0.51457,-0.73481 -0.16655,-0.18151 -0.34503,-0.31239 -0.50869,-0.3631 -0.16366,-0.0507 -0.3124,-0.021 -0.41069,0.0564 -0.0983,0.0774 -0.14589,0.20237 -0.16966,0.372 -0.0238,0.16963 -0.0238,0.3838 0.0119,0.70808 0.0357,0.32427 0.10712,0.75858 0.15172,1.06794 0.0446,0.30937 0.0624,0.49381 0.12789,0.86567 0.0655,0.37185 0.1785,0.93109 0.31834,1.43384 0.13985,0.50274 0.30643,0.94895 0.43734,1.27024 0.13091,0.32128 0.22609,0.5176 0.38384,0.67519 0.15775,0.15759 0.37787,0.27657 0.48778,0.33598 0.10991,0.0594 0.10995,0.0594 0.22601,-0.009 z"
               id="path106"
               inkscape:path-effect="#path-effect108"
               inkscape:original-d="m 116.90805,112.57085 c 0.2323,-0.13657 0.46433,-0.27341 0.69609,-0.41052 0.11331,-0.29126 0.22635,-0.58278 0.33913,-0.87458 -0.0117,-0.36266 -0.0235,-0.72557 -0.0357,-1.08876 -0.10088,-0.37456 -0.20202,-0.74937 -0.30343,-1.12446 -0.15442,-0.36861 -0.30911,-0.73747 -0.46406,-1.10661 -0.23177,-0.41026 -0.4638,-0.82077 -0.69609,-1.23155 -0.15443,-0.23177 -0.30911,-0.4638 -0.46406,-0.69609 -0.17823,-0.13063 -0.35671,-0.26152 -0.53546,-0.39267 -0.14848,0.03 -0.29721,0.0598 -0.44621,0.0892 -0.0473,0.12521 -0.0949,0.25015 -0.14279,0.37482 2.6e-4,0.21446 2.6e-4,0.42863 0,0.64255 0.0717,0.43459 0.14305,0.8689 0.21418,1.30295 0.0181,0.1847 0.036,0.36913 0.0535,0.5533 0.11331,0.55953 0.22635,1.11877 0.33913,1.67777 0.16685,0.44648 0.33343,0.89269 0.49976,1.33864 0.0955,0.1966 0.19065,0.39293 0.28557,0.589 0.22041,0.11926 0.44053,0.23824 0.6604,0.35697 z" />
            <path
               style="fill:none;stroke:#000000;stroke-width:0.264583px;stroke-linecap:butt;stroke-linejoin:miter;stroke-opacity:1"
               d="m 122.82597,117.32329 c -0.2859,-0.555 -0.57198,-1.11032 -0.85821,-1.66595"
               id="path114"
               inkscape:path-effect="#path-effect116"
               inkscape:original-d="m 122.82597,117.32329 c -0.2858,-0.55505 -0.57187,-1.11037 -0.85821,-1.66595" />
            <path
               style="fill:none;stroke:#000000;stroke-width:0.264583px;stroke-linecap:butt;stroke-linejoin:miter;stroke-opacity:1"
               d="m 113.3842,112.65586 c 0,0 0,0 0,0 0,0 0,0 0,0 0,0 0,0 0,0 z"
               id="path118"
               inkscape:path-effect="#path-effect120"
               inkscape:original-d="m 113.3842,112.65586 c 2.7e-4,2.6e-4 2.7e-4,2.6e-4 0,0 v 0 c 2.7e-4,2.6e-4 0,0 0,0 z"
               sodipodi:nodetypes="ccccc" />
            <path
               style="fill:none;stroke:#000000;stroke-width:0.264583px;stroke-linecap:butt;stroke-linejoin:miter;stroke-opacity:1"
               d="m 118.44303,121.15601 c -0.44021,-2.4747 -0.88048,-4.9497 -1.3208,-7.425"
               id="path363"
               inkscape:path-effect="#path-effect365"
               inkscape:original-d="m 118.44303,121.15601 c -0.44,-2.47474 -0.88027,-4.94974 -1.3208,-7.425" />
            <path
               style="fill:none;stroke:#000000;stroke-width:0.264583px;stroke-linecap:butt;stroke-linejoin:miter;stroke-opacity:1"
               d="m 128.40252,113.19555 c 0.16682,0.21448 0.3334,0.42866 0.46421,0.74995 0.13082,0.32129 0.226,0.74963 0.27952,1.26128 0.0535,0.51165 0.0654,1.10658 -0.0239,1.69554 -0.0893,0.58896 -0.27965,1.172 -0.53548,1.85024 -0.25584,0.67824 -0.5771,1.45166 -0.93408,2.20723 -0.35697,0.75558 -0.74963,1.49331 -1.08875,2.0942 -0.33913,0.60089 -0.6247,1.06495 -0.63049,1.44582 -0.006,0.38088 0.26787,0.67835 0.5413,0.97555"
               id="path367"
               inkscape:path-effect="#path-effect369"
               inkscape:original-d="m 128.40252,113.19555 c 0.16685,0.21445 0.33344,0.42863 0.49976,0.64255 0.0955,0.42864 0.19065,0.85699 0.28558,1.28509 0.0122,0.59523 0.024,1.19017 0.0357,1.78486 -0.19012,0.58333 -0.3805,1.16637 -0.57115,1.74916 -0.32102,0.77372 -0.64228,1.54714 -0.96382,2.32031 -0.39241,0.73802 -0.78507,1.47575 -1.17801,2.21322 -0.28531,0.46434 -0.57088,0.92839 -0.85673,1.39219 0.27395,0.29775 0.54762,0.59522 0.82104,0.89243" />
            <path
               style="fill:none;stroke:#000000;stroke-width:0.264583px;stroke-linecap:butt;stroke-linejoin:miter;stroke-opacity:1"
               d="m 123.37536,118.84183 c 0.13697,0.12483 0.38684,0.18433 0.67234,0.15451 0.2855,-0.0298 0.60677,-0.1488 0.94583,-0.38081 0.33905,-0.23201 0.69601,-0.57707 1.01727,-0.95187 0.32126,-0.37479 0.60683,-0.77935 0.8686,-1.2077 0.26177,-0.42835 0.49975,-0.88051 0.74963,-1.42785 0.24988,-0.54734 0.51166,-1.18988 0.60097,-1.6717 0.0893,-0.48182 0.006,-0.80309 -0.12476,-0.9817 -0.13077,-0.17861 -0.30925,-0.21431 -0.5236,-0.0894 -0.21435,0.12491 -0.46423,0.41049 -0.74386,0.73177 -0.27963,0.32128 -0.589,0.67824 -0.99953,1.19586 -0.41053,0.51763 -0.92218,1.19586 -1.33271,1.79084 -0.41052,0.59497 -0.71989,1.10662 -0.92218,1.48147 -0.20229,0.37484 -0.29748,0.61283 -0.33313,0.8271 -0.0357,0.21426 -0.0118,0.40464 0.12513,0.52947 z"
               id="path371"
               inkscape:path-effect="#path-effect373"
               inkscape:original-d="m 123.26214,118.90709 c 0.25014,0.0598 0.50002,0.11925 0.74964,0.17849 0.32154,-0.11873 0.64281,-0.23772 0.96382,-0.35698 0.35724,-0.34481 0.71421,-0.68987 1.07091,-1.03521 0.28585,-0.40431 0.57142,-0.80887 0.85673,-1.2137 0.23825,-0.45191 0.47623,-0.90407 0.71394,-1.3565 0.26205,-0.64229 0.52383,-1.28483 0.78534,-1.92764 -0.083,-0.32102 -0.16632,-0.64228 -0.24988,-0.96382 -0.17822,-0.0354 -0.3567,-0.0711 -0.53546,-0.10709 -0.24961,0.28584 -0.49949,0.57141 -0.74963,0.85673 -0.30912,0.35724 -0.61849,0.7142 -0.92813,1.07091 -0.5114,0.67852 -1.02305,1.35676 -1.53498,2.03474 -0.30911,0.51193 -0.61848,1.02358 -0.92812,1.53497 -0.0949,0.23825 -0.19012,0.47623 -0.28558,0.71394 0.0241,0.19066 0.0479,0.38104 0.0714,0.57116 z" />
            <path
               style="fill:none;stroke:#000000;stroke-width:0.264583px;stroke-linecap:butt;stroke-linejoin:miter;stroke-opacity:1"
               d="m 125.65384,130.97271 c -1.18959,-0.79703 -2.3795,-1.59426 -3.34336,-2.41527 -0.96386,-0.821 -1.70158,-1.66581 -2.1122,-2.32025 -0.41061,-0.65445 -0.4939,-1.1185 -0.46421,-1.54695 0.0297,-0.42845 0.17249,-0.8211 0.70796,-1.666 0.53548,-0.84489 1.46358,-2.14186 2.39174,-3.43891"
               id="path379"
               inkscape:path-effect="#path-effect381"
               inkscape:original-d="m 125.65384,130.97271 c -1.18963,-0.79697 -2.37954,-1.5942 -3.56971,-2.3917 -0.73749,-0.84459 -1.47521,-1.6894 -2.21322,-2.5345 -0.083,-0.46381 -0.16632,-0.92786 -0.24988,-1.39219 0.14306,-0.39241 0.28584,-0.78507 0.42837,-1.178 0.9284,-1.29676 1.85651,-2.59373 2.78437,-3.89099" />
            <path
               style="fill:none;stroke:#000000;stroke-width:0.264583px;stroke-linecap:butt;stroke-linejoin:miter;stroke-opacity:1"
               d="m 128.80122,128.46199 c 0.14881,-0.0476 0.4463,-0.14282 0.67228,-0.31529 0.22597,-0.17248 0.38066,-0.42235 0.5175,-0.79117 0.13684,-0.36882 0.25582,-0.85667 0.32129,-1.41589 0.0655,-0.55923 0.0774,-1.18986 0.0595,-1.76101 -0.0178,-0.57114 -0.0654,-1.0828 -0.16057,-1.529 -0.0952,-0.4462 -0.23793,-0.82696 -0.38062,-1.06499 -0.1427,-0.23804 -0.2855,-0.33324 -0.46413,-0.28575 -0.17863,0.0475 -0.39281,0.23787 -0.53563,0.49976 -0.14282,0.26189 -0.21421,0.59505 -0.2856,0.95203 -0.0714,0.35698 -0.14279,0.73774 -0.21418,1.16612 -0.0714,0.42837 -0.14279,0.90434 -0.19633,1.36841 -0.0535,0.46408 -0.0892,0.91623 -0.11898,1.3565 -0.0297,0.44027 -0.0535,0.86863 -0.0237,1.1483 0.0299,0.27967 0.11313,0.41053 0.23219,0.50564 0.11906,0.0951 0.27373,0.15459 0.35092,0.18427 0.0772,0.0297 0.0772,0.0297 0.22601,-0.0179 z"
               id="path383"
               inkscape:path-effect="#path-effect385"
               inkscape:original-d="m 128.6524,128.50961 c 0.29774,-0.0949 0.59522,-0.19012 0.89243,-0.28558 0.15496,-0.24961 0.30964,-0.49949 0.46406,-0.74963 0.11926,-0.48761 0.23825,-0.97546 0.35697,-1.46359 0.0122,-0.63039 0.024,-1.26103 0.0357,-1.89194 -0.0473,-0.51141 -0.0949,-1.02306 -0.14279,-1.53498 -0.14253,-0.38051 -0.28531,-0.76127 -0.42836,-1.14231 -0.14253,-0.0949 -0.28532,-0.19011 -0.42837,-0.28557 -0.21392,0.19065 -0.4281,0.38103 -0.64255,0.57115 -0.0711,0.33345 -0.14252,0.66661 -0.21418,0.99952 -0.0711,0.38104 -0.14253,0.7618 -0.21418,1.14231 -0.0711,0.47623 -0.14253,0.95219 -0.21419,1.42788 -0.0354,0.45244 -0.0711,0.90459 -0.10709,1.35649 -0.0235,0.42864 -0.0473,0.857 -0.0714,1.2851 0.0836,0.13116 0.16685,0.26204 0.24988,0.39267 0.15495,0.0598 0.30964,0.11925 0.46406,0.17848 z" />
            <path
               style="fill:none;stroke:#000000;stroke-width:0.264583px;stroke-linecap:butt;stroke-linejoin:miter;stroke-opacity:1"
               d="m 140.03978,137.64808 c -0.65413,-0.32112 -1.30858,-0.6424 -2.04038,-1.07075 -0.73181,-0.42835 -1.54093,-0.9638 -2.15972,-1.50516 -0.61879,-0.54136 -1.04715,-1.08871 -1.39823,-1.73125 -0.35108,-0.64255 -0.62474,-1.38027 -0.79138,-2.10018 -0.16663,-0.71992 -0.22613,-1.42195 -0.26184,-2.14186 -0.0357,-0.71991 -0.0476,-1.45763 -0.10708,-2.13586 -0.0595,-0.67824 -0.16656,-1.29697 -0.39851,-1.86218 -0.23195,-0.56521 -0.58892,-1.07686 -1.047,-1.51718 -0.45807,-0.44032 -1.01731,-0.80918 -1.57687,-1.17825"
               id="path387"
               inkscape:path-effect="#path-effect389"
               inkscape:original-d="m 140.03978,137.64808 c -0.65418,-0.32102 -1.30863,-0.64229 -1.96334,-0.96383 -0.80889,-0.5352 -1.61801,-1.07065 -2.4274,-1.60637 -0.42811,-0.5471 -0.85647,-1.09445 -1.2851,-1.64206 -0.27342,-0.7375 -0.54709,-1.47522 -0.82103,-2.21323 -0.0592,-0.70179 -0.11873,-1.40382 -0.17849,-2.10613 -0.0116,-0.73749 -0.0236,-1.47521 -0.0357,-2.21322 -0.10682,-0.6185 -0.21392,-1.23723 -0.32127,-1.85625 -0.35671,-0.5114 -0.71368,-1.02305 -1.07091,-1.53497 -0.55901,-0.36862 -1.11825,-0.73748 -1.67777,-1.10661" />
            <path
               style="fill:none;stroke:#000000;stroke-width:0.264583px;stroke-linecap:butt;stroke-linejoin:miter;stroke-opacity:1"
               d="m 178.00427,166.0902 c -2.65851,-2.42295 -5.3173,-4.84615 -7.31981,-6.46165 -2.0025,-1.61551 -3.34869,-2.42323 -4.47616,-3.0627 -1.12747,-0.63947 -2.03615,-1.11064 -3.11314,-1.5482 -1.07699,-0.43755 -2.32222,-0.84141 -4.24061,-1.53136 -1.91839,-0.68994 -4.50982,-1.66593 -6.74794,-2.64193 -2.23811,-0.976 -4.12279,-1.95199 -5.77192,-2.82704 -1.64914,-0.87504 -3.06265,-1.64911 -4.44254,-2.40637 -1.37989,-0.75725 -2.72608,-1.49766 -3.7021,-1.98569 -0.97602,-0.48803 -1.58181,-0.72362 -2.47371,-1.39667 -0.89191,-0.67306 -2.06983,-1.78367 -3.18049,-2.97844 -1.11066,-1.19476 -2.15397,-2.47366 -2.92806,-3.48332 -0.7741,-1.00967 -1.27893,-1.75008 -1.48097,-2.49055 -0.20205,-0.74047 -0.10109,-1.48087 -0.005,-2.12655 0.0965,-0.64567 0.18837,-1.19657 0.28034,-1.74769"
               id="path399"
               inkscape:path-effect="#path-effect401"
               inkscape:original-d="m 178.00427,166.0902 c -2.65853,-2.42293 -5.31731,-4.84614 -7.97637,-7.2696 -1.34598,-0.80749 -2.69218,-1.6152 -4.03867,-2.4232 -0.90845,-0.47092 -1.81713,-0.94209 -2.7261,-1.41353 -1.24501,-0.40362 -2.49024,-0.80747 -3.73577,-1.21161 -2.59126,-0.97576 -5.18269,-1.95175 -7.77443,-2.92803 -1.88448,-0.97577 -3.76916,-1.95176 -5.65413,-2.92803 -1.4133,-0.77383 -2.82681,-1.54789 -4.2406,-2.32224 -1.34599,-0.74017 -2.69218,-1.48058 -4.03867,-2.22126 -0.60555,-0.23533 -1.21134,-0.47092 -1.8174,-0.70677 -1.17771,-1.11039 -2.35563,-2.221 -3.53384,-3.3319 -1.04307,-1.27867 -2.08638,-2.55756 -3.12996,-3.83673 -0.50458,-0.74018 -1.00941,-1.48059 -1.5145,-2.22127 0.10123,-0.74018 0.20219,-1.48058 0.3029,-2.22127 0.0922,-0.55065 0.18413,-1.10155 0.27579,-1.65272" />
            <path
               style="fill:none;stroke:#000000;stroke-width:0.264583px;stroke-linecap:butt;stroke-linejoin:miter;stroke-opacity:1"
               d="m 142.43149,136.04171 c 0,0 0,0 0,0 z"
               id="path403"
               inkscape:path-effect="#path-effect405"
               inkscape:original-d="m 142.43149,136.04171 c -0.23772,-0.14253 -0.4757,-0.28532 0,0 z" />
            <path
               style="fill:none;stroke:#000000;stroke-width:0.264583px;stroke-linecap:butt;stroke-linejoin:miter;stroke-opacity:1"
               d="m 130.72283,118.51442 c 2.80848,1.90405 5.61665,3.8079 8.42452,5.71154"
               id="path407"
               inkscape:path-effect="#path-effect409"
               inkscape:original-d="m 130.72283,118.51442 c 2.80844,1.90411 5.61661,3.80796 8.42452,5.71154" />
            <path
               style="fill:none;stroke:#000000;stroke-width:0.264583px;stroke-linecap:butt;stroke-linejoin:miter;stroke-opacity:1"
               d="m 140.00408,122.22692 c -0.26179,3.73654 -0.52357,7.47284 -0.78533,11.2089"
               id="path411"
               inkscape:path-effect="#path-effect413"
               inkscape:original-d="m 140.00408,122.22692 c -0.26151,3.73656 -0.52329,7.47286 -0.78533,11.2089" />
            <path
               style="fill:none;stroke:#000000;stroke-width:0.265191px;stroke-linecap:butt;stroke-linejoin:miter;stroke-opacity:1"
               d="m 148.14311,139.64735 c 3.2759,0.90435 6.5515,1.80861 9.3011,2.68911 2.7496,0.88049 4.97313,1.73714 6.28816,2.28449 1.31502,0.54735 1.72147,0.78531 2.19965,1.11848 0.47819,0.33318 1.0281,0.7615 1.57773,1.1896"
               id="path415"
               inkscape:path-effect="#path-effect417"
               inkscape:original-d="m 148.14311,139.64735 c 3.27585,0.90454 6.55145,1.80879 9.82677,2.71279 2.22388,0.85695 4.44741,1.7136 6.67073,2.57001 0.40673,0.23823 0.81319,0.47618 1.21937,0.71389 0.5502,0.4286 1.10011,0.85692 1.64977,1.28499"
               inkscape:transform-center-x="-0.16204696"
               inkscape:transform-center-y="-0.36256725" />
            <path
               style="fill:none;stroke:#000000;stroke-width:0.264583px;stroke-linecap:butt;stroke-linejoin:miter;stroke-opacity:1"
               d="m 152.71226,108.37644 c -0.32697,-0.35075 -0.6542,-0.70177 -0.98167,-1.05306"
               id="path2353"
               inkscape:path-effect="#path-effect2355"
               inkscape:original-d="m 152.71226,108.37644 c -0.32696,-0.35076 -0.65419,-0.70178 -0.98167,-1.05306" />
            <path
               style="fill:none;stroke:#000000;stroke-width:0.264583px;stroke-linecap:butt;stroke-linejoin:miter;stroke-opacity:1"
               d="m 117.21105,114.18255 c -0.0295,-0.1502 -0.0591,-0.30071 -0.10395,-0.49561 -0.0448,-0.19489 -0.10485,-0.43412 -0.12126,-0.63894 -0.0164,-0.20482 0.0109,-0.37509 0.0383,-0.5456"
               id="path4402"
               inkscape:path-effect="#path-effect4404"
               inkscape:original-d="m 117.21105,114.18255 c -0.0293,-0.15025 -0.0589,-0.30076 -0.0888,-0.45154 -0.0598,-0.239 -0.11982,-0.47824 -0.18012,-0.71776 0.0276,-0.17002 0.0549,-0.3403 0.082,-0.51085" />
            <path
               style="fill:none;stroke:#000000;stroke-width:0.264583px;stroke-linecap:butt;stroke-linejoin:miter;stroke-opacity:1"
               d="m 122.60739,119.88876 c 0.0754,-0.10109 0.15089,-0.20224 0.27888,-0.37673 0.128,-0.17449 0.30852,-0.42232 0.48908,-0.6702"
               id="path4907"
               inkscape:path-effect="#path-effect4909"
               inkscape:original-d="m 122.60739,119.88876 c 0.0757,-0.10088 0.15118,-0.20202 0.22638,-0.30343 0.1808,-0.24757 0.36132,-0.4954 0.54158,-0.7435" />
            <path
               style="fill:none;stroke:#000000;stroke-width:0.264583px;stroke-linecap:butt;stroke-linejoin:miter;stroke-opacity:1"
               d="m 128.32292,129.84427 c 0.0265,-0.1472 0.053,-0.29461 0.13274,-0.52503 0.0797,-0.23043 0.2126,-0.54378 0.34555,-0.85725"
               id="path5264"
               inkscape:path-effect="#path-effect5266"
               inkscape:original-d="m 128.32292,129.84427 c 0.0268,-0.14715 0.0533,-0.29456 0.0796,-0.44223 0.13317,-0.31309 0.26606,-0.62644 0.39869,-0.94005" />
            <path
               style="fill:#aa0000;stroke-width:0.465988"
               d="m 567.8992,404.9701 c -3.85159,-1.37383 -6.6739,-4.14777 -10.69419,-10.51087 -2.93697,-4.64848 -4.07876,-7.3104 -4.04089,-9.42077 0.0524,-2.92248 0.99921,-5.68606 2.015,-5.88169 2.3534,-0.45322 17.81782,19.0015 18.73014,23.5631 0.51058,2.5529 -2.25674,3.58901 -6.01006,2.25023 z"
               id="path5510"
               transform="scale(0.26458333)"
               sodipodi:nodetypes="scssss" />
            <path
               style="fill:#aa0000;stroke-width:0.465988"
               d="m 440.01754,423.16987 c -2.36586,-3.0077 -6.16697,-20.7538 -4.79852,-22.40268 0.9156,-1.10323 2.03941,-0.16683 4.45928,3.71569 4.6685,7.49031 6.4071,15.17343 4.12896,18.24642 -1.29448,1.74611 -2.63976,1.90251 -3.78972,0.44057 z"
               id="path5549"
               transform="scale(0.26458333)" />
            <path
               style="fill:#aa0000;stroke-width:0.465988"
               d="m 466.60399,448.23145 c -0.74406,-1.939 7.48767,-14.31369 14.17917,-21.31543 2.02576,-2.11969 2.19855,-2.20611 2.79505,-1.39797 0.84525,1.14516 0.44304,3.21795 -1.50709,7.76666 -3.96242,9.24246 -9.6994,15.69517 -13.95426,15.69517 -0.69561,0 -1.34988,-0.32367 -1.51287,-0.74843 z"
               id="path5588"
               transform="scale(0.26458333)" />
            <path
               style="fill:#aa0000;stroke-width:0.465988"
               d="m 485.10795,484.17883 c -0.84989,-1.02405 -0.37305,-10.00114 0.90434,-17.0254 1.43919,-7.91398 3.22973,-9.79424 4.88128,-5.12587 0.72286,2.0433 0.90977,3.8384 0.92188,8.85378 0.0169,6.99375 -0.76902,10.71548 -2.62948,12.45222 -1.49336,1.39405 -3.31007,1.7706 -4.07802,0.84527 z"
               id="path5627"
               transform="scale(0.26458333)" />
          </g>
        </g>
        <path
           style="fill:#ff00ff;stroke-width:1.07935"
           d="m 1277.69,187.15995 c -4.2231,-2.09042 -9.819,-8.38869 -13.1804,-14.83498 -1.5606,-2.9927 -0.649,-7.72473 1.488,-7.72473 1.7163,0 13.5466,12.51389 17.6806,18.70211 2.2994,3.44204 2.5015,4.29426 1.2118,5.11036 -2.0751,1.31311 -1.9845,1.32888 -7.2,-1.25276 z"
           id="path464"
           transform="matrix(0.2367895,0,0,0.25071555,-230.86279,-22.127191)" />
        <path
           style="fill:#ff00ff;stroke-width:0.0674591"
           d="m 1281.9593,189.45516 c -0.8655,-0.107 -1.5492,-0.26737 -2.5634,-0.60134 -3.9659,-1.30583 -6.7562,-3.62961 -10.7186,-8.9267 -2.0292,-2.71262 -3.6377,-5.20341 -4.496,-6.96195 -1.0871,-2.22748 -1.2772,-3.43073 -0.9003,-5.70029 0.3251,-1.95775 1.1567,-3.66248 1.9076,-3.91028 0.8242,-0.272 2.9459,1.34377 6.724,5.12054 5.9108,5.9087 11.9054,13.29074 13.7258,16.90251 0.6388,1.26745 0.7507,1.78954 0.5374,2.50762 -0.1256,0.42301 -0.517,0.87753 -0.9663,1.12206 -0.7219,0.3929 -2.1277,0.58661 -3.2502,0.44783 z m 1.5648,-0.27052 c 0.6044,-0.20362 1.7306,-0.92959 1.9761,-1.27389 0.3746,-0.5254 0.2365,-1.25395 -0.4801,-2.53278 -0.5036,-0.89853 -1.741,-2.76045 -2.5557,-3.84549 -4.9852,-6.63914 -14.5998,-16.61317 -16.3267,-16.93715 -0.5904,-0.11076 -1.359,0.39596 -1.7699,1.16685 -0.5114,0.95964 -0.7693,2.54415 -0.6314,3.88063 0.1321,1.28034 0.3592,1.98962 1.042,3.2549 2.9149,5.40108 7.5002,10.8011 11.3794,13.40125 0.7019,0.47045 3.7219,2.02171 4.8908,2.51218 0.7053,0.29594 1.4431,0.50386 1.8067,0.50915 0.1403,0.002 0.4412,-0.059 0.6688,-0.13565 z"
           id="path581"
           transform="matrix(0.2367895,0,0,0.25071555,-230.86279,-22.127191)" />
        <path
           style="fill:#ff00ff;stroke-width:1.07935"
           d="m 1136.6783,205.41778 c -1.8774,-2.86911 -4.9842,-14.09269 -4.9842,-18.00566 0,-2.56061 0.063,-2.58158 2.1347,-0.70702 2.9699,2.68776 7.5794,12.26747 7.5794,15.75201 0,1.59168 -0.696,3.47164 -1.5468,4.17769 -1.2419,1.03068 -1.8693,0.79078 -3.1831,-1.21702 z"
           id="path620"
           transform="matrix(0.2367895,0,0,0.25071555,-230.86279,-22.127191)" />
        <path
           style="fill:#ff00ff;stroke-width:1.07935"
           d="m 1167.3125,231.02881 c 0,-2.76017 15.1566,-21.09604 17.4382,-21.09604 1.2439,0 -1.3006,6.48452 -4.7593,12.12916 -4.0875,6.67068 -12.6789,12.74674 -12.6789,8.96688 z"
           id="path659"
           transform="matrix(0.2367895,0,0,0.25071555,-230.86279,-22.127191)" />
        <g
           id="g1176">
          <path
             style="fill:#ff00ff;stroke-width:1.07935"
             d="m 1187.1915,266.75598 c -0.7716,-2.01079 1.2731,-16.72655 2.8871,-20.77911 l 1.2443,-3.12405 1.438,3.23803 c 2.86,6.44042 1.1744,18.92981 -2.8453,21.08109 -1.6309,0.87281 -2.2668,0.77571 -2.7241,-0.41596 z"
             id="path698"
             transform="matrix(0.2367895,0,0,0.25071555,-230.86279,-22.127191)" />
        </g>
        <path
           style="fill:#ff00ff;stroke-width:0.134918"
           d="m 1187.5244,268.0221 c -0.5195,-0.22391 -0.7125,-0.71136 -0.8491,-2.14478 -0.2355,-2.47215 0.1562,-7.57578 0.9543,-12.43342 0.8621,-5.24727 1.9506,-8.73485 3.0319,-9.71411 0.2059,-0.18648 0.3384,-0.24681 0.2963,-0.13492 -0.042,0.1113 -0.3506,0.90058 -0.6862,1.75393 -0.3355,0.85336 -0.7627,2.1587 -0.9493,2.90075 -1.0698,4.25326 -2.1226,11.38632 -2.3234,15.7416 -0.096,2.09216 0.01,2.77745 0.5059,3.41409 0.2651,0.33696 0.3539,0.36461 0.9997,0.31106 3.4619,-0.28709 5.9497,-6.6188 5.6838,-14.46597 -0.1186,-3.50238 -0.5293,-5.34565 -1.8524,-8.31513 -0.3688,-0.82783 -0.6706,-1.53091 -0.6706,-1.5624 0,-0.0315 0.1246,0.009 0.277,0.091 0.6649,0.35588 1.6916,2.51669 2.0856,4.3895 0.4549,2.16234 0.4933,9.91926 0.064,12.92416 -0.5249,3.67434 -1.6925,5.78119 -3.791,6.84051 -0.9143,0.46153 -2.2069,0.64968 -2.7766,0.40415 z"
           id="path737"
           transform="matrix(0.2367895,0,0,0.25071555,-230.86279,-22.127191)" />
        <path
           style="fill:#ff00ff;stroke-width:0.0954016"
           d="m 1167.0477,232.50212 c -0.1574,-0.07 -0.3888,-0.23847 -0.5143,-0.37447 -0.192,-0.20823 -0.2192,-0.31182 -0.1717,-0.65612 0.4041,-2.93164 8.3041,-13.34008 15.1475,-19.95709 1.7001,-1.6438 2.6028,-2.39912 2.9807,-2.49396 0.2161,-0.0542 0.3232,-0.0146 0.5593,0.20717 1.1883,1.11598 0.7603,3.2516 -1.6229,8.09782 -1.1421,2.32254 -1.8405,3.55118 -3.1177,5.48496 -3.4894,5.28312 -7.5551,8.90495 -10.8758,9.68848 -0.7187,0.16958 -2.0068,0.17131 -2.3851,0.003 z m 2.0468,-0.38768 c 2.3383,-0.62226 6.5308,-4.08028 9.2844,-7.65781 3.1573,-4.10205 7.1379,-12.57507 6.7095,-14.28183 -0.049,-0.19592 -0.1192,-0.24359 -0.3581,-0.24359 -0.6052,0 -1.7077,0.87988 -3.9023,3.11433 -3.8789,3.9493 -8.8413,10.02372 -11.6925,14.31251 -1.7116,2.57463 -2.1677,3.80173 -1.6546,4.45193 0.3653,0.46296 0.7473,0.53502 1.6136,0.30446 z"
           id="path776"
           transform="matrix(0.2367895,0,0,0.25071555,-230.86279,-22.127191)" />
        <path
           style="fill:#ff00ff;stroke-width:0.0954016"
           d="m 1137.9754,207.93308 c -0.8881,-0.28405 -1.5389,-1.02241 -2.3172,-2.62884 -0.9901,-2.04373 -1.9277,-4.84058 -2.9103,-8.68155 -1.5563,-6.08367 -2.1399,-10.73412 -1.4746,-11.74962 0.086,-0.13157 0.3103,-0.30335 0.4979,-0.38173 0.3051,-0.12748 0.3829,-0.12653 0.7379,0.009 1.4344,0.54778 4.6679,4.9665 6.8249,9.32648 1.812,3.66279 2.6892,6.93965 2.5463,9.51185 -0.09,1.60975 -0.4747,2.60941 -1.3654,3.54325 -0.8315,0.87174 -1.8205,1.28108 -2.5395,1.05111 z m 1.4587,-0.94259 c 0.8116,-0.51564 1.3081,-1.26174 1.7267,-2.59498 0.1897,-0.60431 0.2226,-0.90231 0.2153,-1.95332 -0.01,-1.1252 -0.041,-1.35334 -0.3561,-2.45998 -0.645,-2.26435 -2.0686,-5.57964 -3.491,-8.1296 -1.2984,-2.32781 -2.4108,-3.8997 -3.5784,-5.05628 -0.5826,-0.57718 -1.2652,-1.15675 -1.517,-1.28793 -0.4301,-0.22418 -0.465,-0.22851 -0.5812,-0.0721 -0.185,0.24929 -0.2605,1.70039 -0.1502,2.88644 0.4691,5.04015 3.2523,14.57894 5.0375,17.26453 1.1062,1.66419 1.7533,2.00118 2.6944,1.40321 z"
           id="path815"
           transform="matrix(0.2367895,0,0,0.25071555,-230.86279,-22.127191)" />
      </g>
      <ellipse
         id="path1005"
         style="fill:#ff00ff;stroke:#000000;stroke-width:0.243653"
         cx="-189.50624"
         cy="17.406843"
         rx="0.00073834311"
         ry="0.00078176649" />
      <ellipse
         id="path1007"
         style="fill:#ff00ff;stroke:#000000;stroke-width:0.243653"
         cx="-189.50624"
         cy="17.406843"
         rx="0.00073834311"
         ry="0.00078176649" />
    </g>
  </g>
</svg>
